Coordinates
version=1
nRows=19
nColumns=24
inDegrees=yes

Units are S.I. units (second, meters, Newtons, ...)
Angles are in degrees.

endheader
time	pelvis_tilt	pelvis_list	pelvis_rotation	pelvis_tx	pelvis_ty	pelvis_tz	hip_flexion_r	hip_adduction_r	hip_rotation_r	knee_angle_r	ankle_angle_r	subtalar_angle_r	mtp_angle_r	hip_flexion_l	hip_adduction_l	hip_rotation_l	knee_angle_l	ankle_angle_l	subtalar_angle_l	mtp_angle_l	lumbar_extension	lumbar_bending	lumbar_rotation
      0.88266667	     -3.43196996	     -2.14746314	      0.39334714	     -0.17572274	      1.05644862	      0.29819238	     -2.51382509	      7.09946248	      1.12598080	    -14.63916043	      9.54179509	    -12.00672009	      2.21408400	     22.23256024	     -0.17897021	     -6.27214665	      2.33107421	      2.77674674	      0.58868867	      2.82380696	      3.61371868	      5.84961182	      1.43358353
      0.88683333	     -3.43478509	     -2.17999806	      0.50014961	     -0.16977244	      1.05595845	      0.29772927	     -2.58693174	      7.08480973	      0.79814615	    -15.19494103	      9.75055777	    -11.23550969	      2.23514696	     22.18204273	     -0.10576315	     -6.26216613	      2.27652021	      2.78260490	      1.42811054	      2.72413476	      3.64409860	      5.94514778	      1.43686951
      0.89100000	     -3.42115276	     -2.20998335	      0.45268399	     -0.16391290	      1.05554753	      0.29763960	     -2.65181594	      7.07751555	      0.77061734	    -15.78730382	      9.69943569	    -11.20497873	      2.23721003	     22.07180294	     -0.11202923	     -6.14527505	      2.21749464	      2.73758303	      1.52980642	      2.71825685	      3.71263909	      5.94188213	      1.44038138
      0.89516667	     -3.41385170	     -2.23989495	      0.55654985	     -0.15797803	      1.05509758	      0.29722036	     -2.69127416	      7.05841225	      0.47018213	    -16.40877299	      9.63223313	    -10.71020752	      2.26136702	     21.99947582	     -0.05121103	     -5.89047761	      2.06126648	      2.54103318	      1.97686374	      2.68431329	      3.72493293	      6.00535969	      1.45968540
      0.89933333	     -3.38330404	     -2.24171207	      0.48891961	     -0.15207503	      1.05475621	      0.29714672	     -2.72177532	      7.01038708	      0.41088408	    -17.11174978	      9.58312973	    -10.65787635	      2.26616014	     21.87145904	     -0.03914820	     -5.77118915	      1.87223456	      2.50632527	      2.06135788	      2.68165969	      3.78497132	      5.98318389	      1.46308638
      0.90350000	     -3.36966037	     -2.25286221	      0.59065758	     -0.14612712	      1.05434557	      0.29667618	     -2.70829348	      6.95641330	      0.04040050	    -17.84879579	      9.49223548	     -9.99687242	      2.30756622	     21.79904989	      0.04306624	     -5.50172723	      1.58925440	      2.31118042	      2.38245157	      2.66759879	      3.74083793	      5.98879633	      1.48198455
      0.90766667	     -3.32988708	     -2.22562525	      0.59456154	     -0.14015137	      1.05403626	      0.29636718	     -2.69387830	      6.85342089	     -0.21168323	    -18.65845668	      9.47886508	     -9.45849307	      2.36352726	     21.66659000	      0.12341888	     -5.27417304	      1.29969210	      2.17541624	      2.51690025	      2.66068168	      3.75023512	      5.96650318	      1.48589157
      0.91183333	     -3.28631155	     -2.20106367	      0.59981312	     -0.13421165	      1.05374168	      0.29609735	     -2.65285607	      6.75486505	     -0.45177852	    -19.51710178	      9.36351509	     -9.06377060	      2.41762951	     21.53645021	      0.19539398	     -5.03333452	      0.96597576	      1.99504972	      2.56564587	      2.66198071	      3.74044686	      5.92748967	      1.49379820
      0.91600000	     -3.24094451	     -2.15997192	      0.61262932	     -0.12823878	      1.05347561	      0.29579099	     -2.58701170	      6.63080284	     -0.72466460	    -20.42437933	      9.19089936	     -8.63770519	      2.48111958	     21.39814360	      0.28917614	     -4.76474444	      0.61110960	      1.77210197	      2.55529116	      2.67010518	      3.73613420	      5.86790300	      1.50790974
      0.92016667	     -3.15791627	     -2.10306240	      0.53389850	     -0.12228665	      1.05331877	      0.29576093	     -2.53065979	      6.49823030	     -0.84804289	    -21.39964970	      9.07634195	     -8.57221632	      2.49356071	     21.20245364	      0.34768888	     -4.60729600	      0.24759207	      1.68672192	      2.59593424	      2.67339401	      3.79967935	      5.81798308	      1.51535992
      0.92433333	     -3.14264509	     -2.05176390	      0.63934828	     -0.11630595	      1.05302143	      0.29521978	     -2.36682344	      6.34212921	     -1.30210081	    -22.40449659	      8.65168118	     -7.84592642	      2.57955613	     21.11342252	      0.49597927	     -4.25698999	     -0.16656815	      1.25399663	      2.45323363	      2.69096882	      3.71583372	      5.69430172	      1.55206314
      0.92850000	     -3.08793773	     -1.96080249	      0.65096985	     -0.11030810	      1.05284783	      0.29478102	     -2.21044471	      6.12751923	     -1.67185882	    -23.49397459	      8.36618656	     -7.23880135	      2.69720010	     20.93837441	      0.65113047	     -3.89471179	     -0.52869821	      0.89230921	      2.10299732	      2.72115282	      3.69174768	      5.59497067	      1.56685373
      0.93266667	     -3.03293766	     -1.85622535	      0.64365886	     -0.10431034	      1.05270783	      0.29440985	     -2.02307627	      5.89600505	     -2.00221324	    -24.63664071	      8.02342799	     -6.76221500	      2.82895564	     20.75609938	      0.80822161	     -3.55272734	     -0.89604866	      0.52770098	      1.70887545	      2.75789294	      3.66369091	      5.47571887	      1.58080173
      0.93683333	     -2.96300267	     -1.74844566	      0.64278454	     -0.09834769	      1.05261452	      0.29404175	     -1.81666186	      5.65630818	     -2.34218550	    -25.83168807	      7.59592993	     -6.32065758	      2.97348960	     20.56053035	      0.96750232	     -3.21832791	     -1.27023108	      0.14984114	      1.29158208	      2.79928429	      3.63810795	      5.35064976	      1.59582640
      0.94100000	     -2.86812619	     -1.59768252	      0.63285421	     -0.09232556	      1.05260275	      0.29342224	     -1.60469907	      5.32850365	     -2.74638102	    -27.09911828	      7.28558317	     -5.78873858	      3.42017133	     20.28608711	      1.19372403	     -2.63027002	     -1.55414696	     -0.40560382	      0.14878551	      2.93451405	      3.65029833	      5.30652249	      1.57823216
      0.94516667	     -2.81110022	     -1.48073824	      0.61932075	     -0.08643550	      1.05253074	      0.29321877	     -1.31307613	      5.07853187	     -3.05630780	    -28.40177138	      6.71200426	     -5.51922509	      3.52833603	     20.12622169	      1.33898542	     -2.46417950	     -1.98070624	     -0.66005959	      0.08756199	      2.96753743	      3.56067328	      5.06373195	      1.60485410
      0.94933333	     -2.74432753	     -1.28658091	      0.56091820	     -0.08034018	      1.05255322	      0.29288984	     -1.01093993	      4.71019461	     -3.39522036	    -29.76848224	      6.24945843	     -5.32937335	      3.59439721	     19.90785706	      1.57006731	     -2.32636501	     -2.34599539	     -0.86351335	      0.00120899	      2.98622854	      3.49530050	      4.94480579	      1.61214194
      0.95350000	     -2.66744496	     -1.18294905	      0.58011793	     -0.07458598	      1.05254479	      0.29258067	     -0.66776643	      4.45191643	     -3.73517357	    -31.14481626	      5.22679928	     -4.78513967	      3.75709655	     19.73476922	      1.71034500	     -2.03334199	     -2.77182465	     -1.33427330	     -0.51476868	      3.02430207	      3.44858480	      4.66022874	      1.65584811
      0.95766667	     -2.58197613	     -0.96471482	      0.52186091	     -0.06848594	      1.05265233	      0.29195311	     -0.32281698	      4.00317562	     -4.10755765	    -32.58082628	      4.33104333	     -4.35943666	      4.11211809	     19.44690509	      1.99003748	     -1.54289618	     -3.03222243	     -1.90573114	     -1.61935138	      3.10693431	      3.56767699	      4.60737585	      1.66514135
